<svg xmlns="http://www.w3.org/2000/svg" viewBox="0 0 40 40" width="480px" height="480px"><path fill="#8bb7f0" d="M9,37.5c-3.584,0-6.5-2.916-6.5-6.5s2.916-6.5,6.5-6.5c0.964,0,1.901,0.213,2.785,0.634l0.715,0.34 V5.429l25-3.846V29c0,3.584-2.916,6.5-6.5,6.5s-6.5-2.916-6.5-6.5s2.916-6.5,6.5-6.5c0.964,0,1.901,0.213,2.785,0.634l0.715,0.34 V11.023l-19,2.931V31C15.5,34.584,12.584,37.5,9,37.5z"/><path fill="#4e7ab5" d="M37,2.166V29c0,3.308-2.692,6-6,6s-6-2.692-6-6s2.692-6,6-6c0.889,0,1.754,0.197,2.57,0.586 l1.43,0.68v-1.583V11.607v-1.166l-1.152,0.178l-18,2.776L15,13.525v0.858V31c0,3.308-2.692,6-6,6s-6-2.692-6-6s2.692-6,6-6 c0.889,0,1.754,0.197,2.57,0.586l1.43,0.68v-1.583V5.858L37,2.166 M38,1L12,5v19.683C11.09,24.25,10.075,24,9,24 c-3.866,0-7,3.134-7,7c0,3.866,3.134,7,7,7s7-3.134,7-7V14.383l18-2.776v11.076C33.09,22.25,32.075,22,31,22c-3.866,0-7,3.134-7,7 c0,3.866,3.134,7,7,7s7-3.134,7-7V1L38,1z"/></svg>