<?xml version="1.0" encoding="utf-8"?>
<!-- Generator: Adobe Illustrator 23.0.6, SVG Export Plug-In . SVG Version: 6.00 Build 0)  -->
<svg version="1.1" id="Layer_1" xmlns="http://www.w3.org/2000/svg" xmlns:xlink="http://www.w3.org/1999/xlink" x="0px" y="0px"
	 viewBox="0 0 1080 1080" style="enable-background:new 0 0 1080 1080;" xml:space="preserve">
<style type="text/css">
	.st0{display:none;}
	.st1{display:inline;fill:none;stroke:#000000;stroke-miterlimit:10;}
	.st2{fill:#855DD4;}
</style>
<g class="st0">
	
		<image style="display:inline;overflow:visible;opacity:0.29;enable-background:new    ;" width="657" height="910" xlink:href="F96105B5.jpeg"  transform="matrix(1.5993 0 0 1.5993 19.1168 -174.0843)">
	</image>
	<path class="st1" d="M324.5,748.5c13-10,6-36-8-37s-23,21-17,37s15,24,32,28c18,5,41-10,50-22s21-50,25-67s4-36,4-36s6,0,7-3
		s-6-6-6-6s7-137,22-138c15.1-1,13,20,17,28c5,12,22,14,24-3s-14-33-25-34s-30.7-0.3-40,23c-4,10-10.1,25.1-15,52
		c-4.9,27.2-5,58-5,58s-6-2-7,2s6,5,6,5s-0.6,125.1-44,129C332.5,764.5,328.5,759.5,324.5,748.5z"/>
</g>
<path class="st2" d="M446.7,135.6c-30.8-2.8-85.9-0.8-111.9,64.4c-11.2,28-28.4,70.3-42,145.5c-13.7,76-14,162.3-14,162.3
	s-16.8-5.6-19.6,5.6c-2.8,11.2,16.8,14,16.8,14s-1.7,350-123.1,361c-33.6,0-44.8-14-56-44.8c36.4-28,16.8-100.7-22.4-103.5
	S10.2,798.8,27,843.6s42,67.2,89.5,78.3c50.4,14,114.7-28,139.9-61.6s58.8-139.9,70-187.5c11.2-47.6,11.2-100.7,11.2-100.7
	s16.8,0,19.6-8.4c2.8-8.4-16.8-16.8-16.8-16.8S360,163.6,402,160.8c42.3-2.8,36.4,56,47.6,78.4c14,33.6,61.6,39.2,67.2-8.4
	C522.3,183.2,477.5,138.4,446.7,135.6z M503.1,240.5c-1.5,2.9-3.3,5.6-5.6,8c-2.3,2.4-5.1,4.4-8.2,5.6c-3.1,1.3-6.6,1.6-9.9,1.4
	c-0.8,0-1.7-0.2-2.5-0.3s-1.6-0.3-2.5-0.5c-0.8-0.2-1.6-0.4-2.4-0.7c-0.8-0.2-1.6-0.5-2.4-0.9c-3.2-1.4-5.8-3.8-7.9-6.5
	s-3.6-5.6-4.9-8.7c-1.3-3-2.3-6.1-3.2-9.3c-3.5-12.5-5.3-25.3-8.4-37.6c-0.8-3.1-1.7-6.1-2.7-9.1s-2.3-5.9-3.8-8.7
	c-1.5-2.7-3.4-5.3-5.8-7.4c-2.3-2.1-5.2-3.6-8.3-4.5c1.6,0.3,3.1,0.7,4.6,1.4c1.5,0.6,2.9,1.5,4.2,2.5c2.6,2,4.8,4.5,6.6,7.3
	c3.5,5.5,5.7,11.7,7.6,17.9c1.8,6.2,3.2,12.5,4.6,18.8s2.7,12.5,4.5,18.6s3.9,12.1,7.5,17c1.8,2.4,4.1,4.5,6.7,5.8
	c0.7,0.3,1.3,0.6,2.1,0.8c0.7,0.3,1.5,0.5,2.2,0.7c0.8,0.2,1.5,0.4,2.2,0.5c0.8,0.1,1.5,0.3,2.3,0.4c3,0.3,6.2,0.1,9-0.9
	c2.9-1,5.6-2.7,7.9-4.8c4.6-4.3,7.8-10,10-16C505.8,234.6,504.6,237.6,503.1,240.5z"/>
<path class="st2" d="M1005.3,740.1c-39.2,2.8-58.8,75.6-22.4,103.5c-11.2,30.8-22.4,44.8-56,44.8c-121.4-11-123.1-361-123.1-361
	s19.6-2.8,16.8-14s-19.6-5.6-19.6-5.6s-0.3-86.3-14-162.3C773.4,270.3,756.2,228,745,200c-26.1-65.2-81.1-67.2-111.9-64.4
	c-30.8,2.8-75.6,47.6-70,95.1c5.6,47.6,53.2,42,67.2,8.4c11.2-22.4,5.3-81.2,47.6-78.4c42,2.8,61.6,386.2,61.6,386.2
	s-19.6,8.4-16.8,16.8c2.8,8.4,19.6,8.4,19.6,8.4s0,53.2,11.2,100.7c11.2,47.6,44.8,153.9,70,187.5c25.2,33.6,89.5,75.5,139.9,61.6
	c47.6-11.2,72.8-33.6,89.5-78.3C1069.7,798.8,1044.5,737.3,1005.3,740.1z M645.5,165.9c-2.4,2.1-4.3,4.7-5.8,7.4
	c-1.5,2.8-2.8,5.7-3.8,8.6c-1,3-1.9,6-2.7,9.1c-3.1,12.4-4.9,25.1-8.4,37.6c-0.9,3.1-1.9,6.2-3.2,9.3c-1.3,3-2.8,6-4.9,8.7
	c-2.1,2.7-4.7,5-7.9,6.5c-0.8,0.3-1.6,0.7-2.4,0.9c-0.8,0.3-1.6,0.5-2.4,0.7c-0.8,0.2-1.6,0.4-2.5,0.5c-0.8,0.1-1.7,0.3-2.5,0.3
	c-3.3,0.2-6.8-0.1-9.9-1.4c-3.2-1.2-5.9-3.2-8.2-5.6c-2.3-2.4-4.1-5.1-5.6-8s-2.6-5.9-3.4-9c2.2,6,5.4,11.8,10,16
	c2.3,2.1,5,3.8,7.9,4.8s6,1.3,9,0.9c0.8,0,1.5-0.2,2.3-0.3s1.5-0.4,2.2-0.5c0.8-0.2,1.5-0.5,2.2-0.7c0.8-0.2,1.4-0.5,2.1-0.8
	c2.7-1.3,4.9-3.4,6.7-5.8c3.6-4.9,5.8-11,7.5-17c1.8-6.1,3.1-12.3,4.5-18.6s2.7-12.6,4.6-18.8c1.8-6.2,4-12.4,7.6-17.9
	c1.8-2.7,3.9-5.3,6.6-7.3c1.3-1,2.7-1.9,4.2-2.5s3.1-1.1,4.7-1.4C650.7,162.3,647.8,163.8,645.5,165.9z"/>
</svg>
